<mxfile host="65bd71144e">
    <diagram id="ODSp2aN9d219dwq8mLHM" name="Page-1">
        <mxGraphModel dx="832" dy="487" grid="1" gridSize="10" guides="1" tooltips="1" connect="1" arrows="1" fold="1" page="1" pageScale="1" pageWidth="850" pageHeight="1100" math="0" shadow="0">
            <root>
                <mxCell id="0"/>
                <mxCell id="1" parent="0"/>
                <mxCell id="4" value="" style="edgeStyle=none;html=1;fontSize=24;" parent="1" source="2" target="3" edge="1">
                    <mxGeometry relative="1" as="geometry"/>
                </mxCell>
                <mxCell id="6" value="" style="edgeStyle=none;html=1;fontSize=24;" parent="1" source="2" target="5" edge="1">
                    <mxGeometry relative="1" as="geometry"/>
                </mxCell>
                <mxCell id="8" value="" style="edgeStyle=none;html=1;fontSize=24;" parent="1" source="2" target="7" edge="1">
                    <mxGeometry relative="1" as="geometry"/>
                </mxCell>
                <mxCell id="10" value="" style="edgeStyle=none;html=1;fontSize=24;" parent="1" source="2" target="9" edge="1">
                    <mxGeometry relative="1" as="geometry"/>
                </mxCell>
                <mxCell id="2" value="&lt;font style=&quot;font-size: 24px;&quot;&gt;اکانت&lt;/font&gt;" style="rounded=1;whiteSpace=wrap;html=1;fillColor=#d80073;fontColor=#ffffff;strokeColor=#A50040;" parent="1" vertex="1">
                    <mxGeometry x="420" y="530" width="120" height="60" as="geometry"/>
                </mxCell>
                <mxCell id="12" value="" style="edgeStyle=none;html=1;fontSize=24;" parent="1" source="3" target="11" edge="1">
                    <mxGeometry relative="1" as="geometry"/>
                </mxCell>
                <mxCell id="14" value="" style="edgeStyle=none;html=1;fontSize=24;" parent="1" source="3" target="13" edge="1">
                    <mxGeometry relative="1" as="geometry"/>
                </mxCell>
                <mxCell id="3" value="ورود" style="ellipse;whiteSpace=wrap;html=1;rounded=1;fillColor=#60a917;fontColor=#ffffff;strokeColor=#2D7600;" parent="1" vertex="1">
                    <mxGeometry x="440" y="380" width="80" height="80" as="geometry"/>
                </mxCell>
                <mxCell id="16" value="" style="edgeStyle=none;html=1;fontSize=24;" parent="1" source="5" target="15" edge="1">
                    <mxGeometry relative="1" as="geometry"/>
                </mxCell>
                <mxCell id="18" value="" style="edgeStyle=none;html=1;fontSize=24;" parent="1" source="5" target="17" edge="1">
                    <mxGeometry relative="1" as="geometry"/>
                </mxCell>
                <mxCell id="20" value="" style="edgeStyle=none;html=1;fontSize=24;" parent="1" source="5" target="19" edge="1">
                    <mxGeometry relative="1" as="geometry"/>
                </mxCell>
                <mxCell id="21" style="edgeStyle=none;html=1;fontSize=24;entryX=1;entryY=0;entryDx=0;entryDy=0;" parent="1" source="5" target="25" edge="1">
                    <mxGeometry relative="1" as="geometry">
                        <mxPoint x="220" y="610" as="targetPoint"/>
                    </mxGeometry>
                </mxCell>
                <mxCell id="23" value="" style="edgeStyle=none;html=1;fontSize=24;" parent="1" source="5" target="17" edge="1">
                    <mxGeometry relative="1" as="geometry"/>
                </mxCell>
                <mxCell id="5" value="ثبت نام" style="ellipse;whiteSpace=wrap;html=1;rounded=1;fillColor=#60a917;fontColor=#ffffff;strokeColor=#2D7600;" parent="1" vertex="1">
                    <mxGeometry x="240" y="520" width="80" height="80" as="geometry"/>
                </mxCell>
                <mxCell id="7" value="خروج" style="ellipse;whiteSpace=wrap;html=1;rounded=1;fillColor=#60a917;fontColor=#ffffff;strokeColor=#2D7600;" parent="1" vertex="1">
                    <mxGeometry x="440" y="660" width="80" height="80" as="geometry"/>
                </mxCell>
                <mxCell id="9" value="فراموشی رمز" style="ellipse;whiteSpace=wrap;html=1;rounded=1;fillColor=#60a917;fontColor=#ffffff;strokeColor=#2D7600;" parent="1" vertex="1">
                    <mxGeometry x="640" y="520" width="80" height="80" as="geometry"/>
                </mxCell>
                <mxCell id="11" value="نام کاربری" style="rhombus;whiteSpace=wrap;html=1;rounded=1;fillColor=#1ba1e2;fontColor=#ffffff;strokeColor=#006EAF;" parent="1" vertex="1">
                    <mxGeometry x="360" y="290" width="80" height="80" as="geometry"/>
                </mxCell>
                <mxCell id="13" value="رمز عبور" style="rhombus;whiteSpace=wrap;html=1;rounded=1;fillColor=#1ba1e2;fontColor=#ffffff;strokeColor=#006EAF;" parent="1" vertex="1">
                    <mxGeometry x="520" y="290" width="80" height="80" as="geometry"/>
                </mxCell>
                <mxCell id="15" value="نام کاربری" style="rhombus;whiteSpace=wrap;html=1;rounded=1;fillColor=#1ba1e2;fontColor=#ffffff;strokeColor=#006EAF;" parent="1" vertex="1">
                    <mxGeometry x="240" y="360" width="80" height="80" as="geometry"/>
                </mxCell>
                <mxCell id="17" value="ایمیل" style="rhombus;whiteSpace=wrap;html=1;rounded=1;fillColor=#1ba1e2;fontColor=#ffffff;strokeColor=#006EAF;" parent="1" vertex="1">
                    <mxGeometry x="110" y="440" width="80" height="80" as="geometry"/>
                </mxCell>
                <mxCell id="19" value="رمز عبور" style="rhombus;whiteSpace=wrap;html=1;rounded=1;fillColor=#1ba1e2;fontColor=#ffffff;strokeColor=#006EAF;" parent="1" vertex="1">
                    <mxGeometry x="240" y="680" width="80" height="80" as="geometry"/>
                </mxCell>
                <mxCell id="25" value="تایید رمز" style="rhombus;whiteSpace=wrap;html=1;rounded=1;fillColor=#1ba1e2;fontColor=#ffffff;strokeColor=#006EAF;" parent="1" vertex="1">
                    <mxGeometry x="110" y="610" width="80" height="80" as="geometry"/>
                </mxCell>
            </root>
        </mxGraphModel>
    </diagram>
    <diagram id="MeDL_zaW4tUlaMwfBI6R" name="Page-2">
        <mxGraphModel dx="832" dy="1587" grid="1" gridSize="10" guides="1" tooltips="1" connect="1" arrows="1" fold="1" page="1" pageScale="1" pageWidth="850" pageHeight="1100" math="0" shadow="0">
            <root>
                <mxCell id="0"/>
                <mxCell id="1" parent="0"/>
                <mxCell id="0pAEV2_QVARYsfb4SqBr-3" value="" style="edgeStyle=none;html=1;fontSize=24;" parent="1" source="0pAEV2_QVARYsfb4SqBr-1" target="0pAEV2_QVARYsfb4SqBr-2" edge="1">
                    <mxGeometry relative="1" as="geometry"/>
                </mxCell>
                <mxCell id="0pAEV2_QVARYsfb4SqBr-5" value="" style="edgeStyle=none;html=1;fontSize=24;" parent="1" source="0pAEV2_QVARYsfb4SqBr-1" target="0pAEV2_QVARYsfb4SqBr-4" edge="1">
                    <mxGeometry relative="1" as="geometry"/>
                </mxCell>
                <mxCell id="0pAEV2_QVARYsfb4SqBr-1" value="تمرین" style="rounded=1;whiteSpace=wrap;html=1;fontSize=24;fillColor=#d80073;fontColor=#ffffff;strokeColor=#A50040;" parent="1" vertex="1">
                    <mxGeometry x="360" y="260" width="120" height="60" as="geometry"/>
                </mxCell>
                <mxCell id="0pAEV2_QVARYsfb4SqBr-9" value="" style="edgeStyle=none;html=1;fontSize=12;" parent="1" source="0pAEV2_QVARYsfb4SqBr-2" target="0pAEV2_QVARYsfb4SqBr-8" edge="1">
                    <mxGeometry relative="1" as="geometry"/>
                </mxCell>
                <mxCell id="0pAEV2_QVARYsfb4SqBr-11" value="" style="edgeStyle=none;html=1;fontSize=12;" parent="1" source="0pAEV2_QVARYsfb4SqBr-2" target="0pAEV2_QVARYsfb4SqBr-10" edge="1">
                    <mxGeometry relative="1" as="geometry"/>
                </mxCell>
                <mxCell id="0pAEV2_QVARYsfb4SqBr-13" value="" style="edgeStyle=none;html=1;fontSize=12;" parent="1" source="0pAEV2_QVARYsfb4SqBr-2" target="0pAEV2_QVARYsfb4SqBr-12" edge="1">
                    <mxGeometry relative="1" as="geometry"/>
                </mxCell>
                <mxCell id="0pAEV2_QVARYsfb4SqBr-29" value="" style="edgeStyle=none;html=1;fontSize=12;" parent="1" source="0pAEV2_QVARYsfb4SqBr-2" target="0pAEV2_QVARYsfb4SqBr-12" edge="1">
                    <mxGeometry relative="1" as="geometry"/>
                </mxCell>
                <mxCell id="0pAEV2_QVARYsfb4SqBr-30" value="" style="edgeStyle=none;html=1;fontSize=12;" parent="1" source="0pAEV2_QVARYsfb4SqBr-2" target="0pAEV2_QVARYsfb4SqBr-12" edge="1">
                    <mxGeometry relative="1" as="geometry"/>
                </mxCell>
                <mxCell id="0pAEV2_QVARYsfb4SqBr-31" value="" style="edgeStyle=none;html=1;fontSize=12;" parent="1" source="0pAEV2_QVARYsfb4SqBr-2" target="0pAEV2_QVARYsfb4SqBr-12" edge="1">
                    <mxGeometry relative="1" as="geometry"/>
                </mxCell>
                <mxCell id="0pAEV2_QVARYsfb4SqBr-2" value="&lt;font style=&quot;font-size: 12px;&quot;&gt;مدل سوال&lt;/font&gt;" style="ellipse;whiteSpace=wrap;html=1;fontSize=24;rounded=1;fillColor=#60a917;fontColor=#ffffff;strokeColor=#2D7600;" parent="1" vertex="1">
                    <mxGeometry x="380" y="110" width="80" height="80" as="geometry"/>
                </mxCell>
                <mxCell id="0pAEV2_QVARYsfb4SqBr-35" value="" style="edgeStyle=none;html=1;fontSize=12;" parent="1" source="0pAEV2_QVARYsfb4SqBr-4" target="0pAEV2_QVARYsfb4SqBr-34" edge="1">
                    <mxGeometry relative="1" as="geometry"/>
                </mxCell>
                <mxCell id="0pAEV2_QVARYsfb4SqBr-38" value="" style="edgeStyle=none;html=1;fontSize=12;" parent="1" source="0pAEV2_QVARYsfb4SqBr-4" target="0pAEV2_QVARYsfb4SqBr-37" edge="1">
                    <mxGeometry relative="1" as="geometry"/>
                </mxCell>
                <mxCell id="0pAEV2_QVARYsfb4SqBr-40" style="edgeStyle=none;html=1;entryX=0.85;entryY=0.82;entryDx=0;entryDy=0;fontSize=12;entryPerimeter=0;" parent="1" source="0pAEV2_QVARYsfb4SqBr-4" target="0pAEV2_QVARYsfb4SqBr-39" edge="1">
                    <mxGeometry relative="1" as="geometry">
                        <Array as="points"/>
                    </mxGeometry>
                </mxCell>
                <mxCell id="0pAEV2_QVARYsfb4SqBr-4" value="&lt;font style=&quot;font-size: 12px;&quot;&gt;مدل پاسخ&lt;/font&gt;" style="ellipse;whiteSpace=wrap;html=1;fontSize=24;rounded=1;fillColor=#60a917;fontColor=#ffffff;strokeColor=#2D7600;" parent="1" vertex="1">
                    <mxGeometry x="180" y="250" width="80" height="80" as="geometry"/>
                </mxCell>
                <mxCell id="0pAEV2_QVARYsfb4SqBr-8" value="&lt;font style=&quot;font-size: 12px;&quot;&gt;صورت سوال&lt;/font&gt;" style="rhombus;whiteSpace=wrap;html=1;fontSize=24;fillColor=#1ba1e2;strokeColor=#006EAF;fontColor=#ffffff;rounded=1;" parent="1" vertex="1">
                    <mxGeometry x="220" y="110" width="80" height="80" as="geometry"/>
                </mxCell>
                <mxCell id="0pAEV2_QVARYsfb4SqBr-10" value="&lt;font style=&quot;font-size: 12px;&quot;&gt;سطح بندی سوال&lt;/font&gt;" style="rhombus;whiteSpace=wrap;html=1;fontSize=24;fillColor=#1ba1e2;strokeColor=#006EAF;fontColor=#ffffff;rounded=1;" parent="1" vertex="1">
                    <mxGeometry x="380" y="-50" width="80" height="80" as="geometry"/>
                </mxCell>
                <mxCell id="0pAEV2_QVARYsfb4SqBr-12" value="&lt;font style=&quot;font-size: 12px;&quot;&gt;تاریخ انتشار&lt;/font&gt;" style="rhombus;whiteSpace=wrap;html=1;fontSize=24;fillColor=#1ba1e2;strokeColor=#006EAF;fontColor=#ffffff;rounded=1;" parent="1" vertex="1">
                    <mxGeometry x="560" y="110" width="80" height="80" as="geometry"/>
                </mxCell>
                <mxCell id="0pAEV2_QVARYsfb4SqBr-34" value="&lt;font style=&quot;font-size: 12px;&quot;&gt;تاریخ ارسال&lt;/font&gt;" style="rhombus;whiteSpace=wrap;html=1;fontSize=24;fillColor=#1ba1e2;strokeColor=#006EAF;fontColor=#ffffff;rounded=1;" parent="1" vertex="1">
                    <mxGeometry x="20" y="250" width="80" height="80" as="geometry"/>
                </mxCell>
                <mxCell id="0pAEV2_QVARYsfb4SqBr-37" value="&lt;font style=&quot;font-size: 12px;&quot;&gt;اپلود فایل&lt;/font&gt;" style="rhombus;whiteSpace=wrap;html=1;fontSize=24;fillColor=#1ba1e2;strokeColor=#006EAF;fontColor=#ffffff;rounded=1;" parent="1" vertex="1">
                    <mxGeometry x="180" y="410" width="80" height="80" as="geometry"/>
                </mxCell>
                <mxCell id="0pAEV2_QVARYsfb4SqBr-39" value="&lt;font style=&quot;font-size: 12px;&quot;&gt;متن توضیحات&lt;/font&gt;" style="rhombus;whiteSpace=wrap;html=1;fontSize=24;fillColor=#1ba1e2;strokeColor=#006EAF;fontColor=#ffffff;rounded=1;" parent="1" vertex="1">
                    <mxGeometry x="70" y="100" width="80" height="80" as="geometry"/>
                </mxCell>
                <mxCell id="0pAEV2_QVARYsfb4SqBr-41" value="چند به چند" style="endArrow=classic;startArrow=classic;html=1;fontSize=12;entryX=0;entryY=1;entryDx=0;entryDy=0;" parent="1" target="0pAEV2_QVARYsfb4SqBr-2" edge="1">
                    <mxGeometry width="50" height="50" relative="1" as="geometry">
                        <mxPoint x="250" y="260" as="sourcePoint"/>
                        <mxPoint x="300" y="210" as="targetPoint"/>
                    </mxGeometry>
                </mxCell>
                <mxCell id="0pAEV2_QVARYsfb4SqBr-42" value="&lt;font style=&quot;font-size: 12px;&quot;&gt;وضعیت پاسخ&amp;nbsp;&lt;/font&gt;" style="rhombus;whiteSpace=wrap;html=1;fontSize=24;fillColor=#1ba1e2;strokeColor=#006EAF;fontColor=#ffffff;rounded=1;" parent="1" vertex="1">
                    <mxGeometry x="500" y="-20" width="80" height="80" as="geometry"/>
                </mxCell>
                <mxCell id="0pAEV2_QVARYsfb4SqBr-43" value="" style="endArrow=classic;html=1;fontSize=12;" parent="1" target="0pAEV2_QVARYsfb4SqBr-42" edge="1">
                    <mxGeometry width="50" height="50" relative="1" as="geometry">
                        <mxPoint x="450" y="120" as="sourcePoint"/>
                        <mxPoint x="500" y="70" as="targetPoint"/>
                    </mxGeometry>
                </mxCell>
                <mxCell id="0pAEV2_QVARYsfb4SqBr-44" value="&lt;font style=&quot;font-size: 12px;&quot;&gt;پاسخ سوال&lt;/font&gt;" style="rhombus;whiteSpace=wrap;html=1;fontSize=24;fillColor=#1ba1e2;strokeColor=#006EAF;fontColor=#ffffff;rounded=1;" parent="1" vertex="1">
                    <mxGeometry x="260" y="-10" width="80" height="80" as="geometry"/>
                </mxCell>
                <mxCell id="0pAEV2_QVARYsfb4SqBr-45" value="" style="endArrow=classic;html=1;fontSize=12;" parent="1" target="0pAEV2_QVARYsfb4SqBr-44" edge="1">
                    <mxGeometry width="50" height="50" relative="1" as="geometry">
                        <mxPoint x="390" y="120" as="sourcePoint"/>
                        <mxPoint x="450" y="70" as="targetPoint"/>
                    </mxGeometry>
                </mxCell>
            </root>
        </mxGraphModel>
    </diagram>
</mxfile>